{
  "accessors": [
    {
      "name": "Body1_1_0_positions",
      "componentType": 5126,
      "count": 122,
      "min": [
        -3,
        0,
        -2
      ],
      "max": [
        3,
        6,
        2
      ],
      "type": "VEC3",
      "bufferView": 0,
      "byteOffset": 0
    },
    {
      "name": "Body1_1_0_normals",
      "componentType": 5126,
      "count": 122,
      "min": [
        -1,
        -1,
        -1
      ],
      "max": [
        1,
        1,
        1
      ],
      "type": "VEC3",
      "bufferView": 1,
      "byteOffset": 0
    },
    {
      "name": "Body1_1_0_texcoords",
      "componentType": 5126,
      "count": 122,
      "min": [
        -3,
        -4
      ],
      "max": [
        6,
        4.141592979431152
      ],
      "type": "VEC2",
      "bufferView": 2,
      "byteOffset": 0
    },
    {
      "name": "Body1_1_0_indices",
      "componentType": 5123,
      "count": 324,
      "min": [
        0
      ],
      "max": [
        121
      ],
      "type": "SCALAR",
      "bufferView": 3,
      "byteOffset": 0
    },
    {
      "name": "Body1:1_1_0_positions",
      "componentType": 5126,
      "count": 256,
      "min": [
        -3,
        5,
        -2.9975669384002686
      ],
      "max": [
        2.990272045135498,
        10,
        2.9975669384002686
      ],
      "type": "VEC3",
      "bufferView": 0,
      "byteOffset": 1464
    },
    {
      "name": "Body1:1_1_0_normals",
      "componentType": 5126,
      "count": 256,
      "min": [
        -1,
        -1,
        -1
      ],
      "max": [
        1,
        1,
        1
      ],
      "type": "VEC3",
      "bufferView": 1,
      "byteOffset": 1464
    },
    {
      "name": "Body1:1_1_0_texcoords",
      "componentType": 5126,
      "count": 256,
      "min": [
        -5,
        -8.42477798461914
      ],
      "max": [
        3,
        10.42477798461914
      ],
      "type": "VEC2",
      "bufferView": 2,
      "byteOffset": 976
    },
    {
      "name": "Body1:1_1_0_indices",
      "componentType": 5123,
      "count": 744,
      "min": [
        0
      ],
      "max": [
        255
      ],
      "type": "SCALAR",
      "bufferView": 3,
      "byteOffset": 648
    },
    {
      "name": "Body1:2_1_0_positions",
      "componentType": 5126,
      "count": 238,
      "min": [
        -2,
        5,
        -2
      ],
      "max": [
        2,
        8,
        2
      ],
      "type": "VEC3",
      "bufferView": 0,
      "byteOffset": 4536
    },
    {
      "name": "Body1:2_1_0_normals",
      "componentType": 5126,
      "count": 238,
      "min": [
        -1,
        -1,
        -1
      ],
      "max": [
        1,
        1,
        1
      ],
      "type": "VEC3",
      "bufferView": 1,
      "byteOffset": 4536
    },
    {
      "name": "Body1:2_1_0_texcoords",
      "componentType": 5126,
      "count": 238,
      "min": [
        -3,
        -2.1415929794311523
      ],
      "max": [
        4,
        4.141592979431152
      ],
      "type": "VEC2",
      "bufferView": 2,
      "byteOffset": 3024
    },
    {
      "name": "Body1:2_1_0_indices",
      "componentType": 5123,
      "count": 708,
      "min": [
        0
      ],
      "max": [
        237
      ],
      "type": "SCALAR",
      "bufferView": 3,
      "byteOffset": 2136
    }
  ],
  "asset": {
    "generator": "obj2gltf",
    "version": "2.0"
  },
  "buffers": [
    {
      "name": "assembly",
      "byteLength": 23264,
      "uri": "data:application/octet-stream;base64,"
    }
  ],
  "bufferViews": [
    {
      "name": "bufferView_0",
      "buffer": 0,
      "byteLength": 7392,
      "byteOffset": 0,
      "byteStride": 12,
      "target": 34962
    },
    {
      "name": "bufferView_1",
      "buffer": 0,
      "byteLength": 7392,
      "byteOffset": 7392,
      "byteStride": 12,
      "target": 34962
    },
    {
      "name": "bufferView_2",
      "buffer": 0,
      "byteLength": 4928,
      "byteOffset": 14784,
      "byteStride": 8,
      "target": 34962
    },
    {
      "name": "bufferView_3",
      "buffer": 0,
      "byteLength": 3552,
      "byteOffset": 19712,
      "target": 34963
    }
  ],
  "materials": [
    {
      "name": "Steel_-_Satin",
      "pbrMetallicRoughness": {
        "baseColorFactor": [
          0.627451,
          0.627451,
          0.627451,
          1
        ],
        "metallicFactor": 0,
        "roughnessFactor": 1
      },
      "emissiveFactor": [
        0,
        0,
        0
      ],
      "alphaMode": "OPAQUE",
      "doubleSided": false
    }
  ],
  "meshes": [
    {
      "name": "Body1_1",
      "primitives": [
        {
          "attributes": {
            "POSITION": 0,
            "NORMAL": 1,
            "TEXCOORD_0": 2
          },
          "indices": 3,
          "material": 0,
          "mode": 4
        }
      ]
    },
    {
      "name": "Body1:1_1",
      "primitives": [
        {
          "attributes": {
            "POSITION": 4,
            "NORMAL": 5,
            "TEXCOORD_0": 6
          },
          "indices": 7,
          "material": 0,
          "mode": 4
        }
      ]
    },
    {
      "name": "Body1:2_1",
      "primitives": [
        {
          "attributes": {
            "POSITION": 8,
            "NORMAL": 9,
            "TEXCOORD_0": 10
          },
          "indices": 11,
          "material": 0,
          "mode": 4
        }
      ]
    }
  ],
  "nodes": [
    {
      "name": "Body1",
      "mesh": 0
    },
    {
      "name": "Body1:1",
      "mesh": 1
    },
    {
      "name": "Body1:2",
      "mesh": 2
    }
  ],
  "scene": 0,
  "scenes": [
    {
      "nodes": [
        0,
        1,
        2
      ]
    }
  ]
}
