<svg width="436" height="436" viewBox="0 0 436 436" fill="none" xmlns="http://www.w3.org/2000/svg">
<path fill-rule="evenodd" clip-rule="evenodd" d="M101.971 7.02943L54.5 54.5L7.02944 101.971C2.52856 106.471 0 112.576 0 118.941V218V412C0 425.255 10.7452 436 24 436H218H317.059C323.424 436 329.529 433.471 334.029 428.971L381.5 381.5L428.971 334.029C433.471 329.529 436 323.424 436 317.059V218V24C436 10.7452 425.255 0 412 0H218H118.941C112.576 0 106.471 2.52856 101.971 7.02943ZM387.388 104.475C387.388 64.7307 360.371 42.5781 315.45 42.5781H220.075C209.659 42.5781 206.078 46.1616 206.078 56.5864V260.521C206.078 270.62 209.659 274.203 220.075 274.203H316.752C362.649 274.203 396.828 251.725 396.828 209.7C396.828 181.358 384.784 162.789 363.951 153.667V152.364C380.553 140.962 387.388 126.302 387.388 104.475ZM302.104 95.0277C315.125 95.0277 321.96 100.566 321.96 113.271C321.96 125.976 315.125 130.863 302.104 130.863H270.529V95.0277H302.104ZM308.289 183.312C322.286 183.312 329.122 189.176 329.122 202.207C329.122 215.89 322.286 221.428 308.289 221.428H270.529V183.312H308.289Z" fill="#A6D38A"/>
</svg>
